<mxfile host="app.diagrams.net" agent="Mozilla/5.0 (Windows NT 10.0; Win64; x64) AppleWebKit/537.36 (KHTML, like Gecko) Chrome/131.0.0.0 Safari/537.36" version="25.0.3">
  <diagram name="Página-1" id="KcPcoP41gH8pGxDPY7pH">
    <mxGraphModel dx="1062" dy="578" grid="1" gridSize="10" guides="1" tooltips="1" connect="1" arrows="1" fold="1" page="1" pageScale="1" pageWidth="1169" pageHeight="827" math="0" shadow="0">
      <root>
        <mxCell id="0" />
        <mxCell id="1" parent="0" />
        <mxCell id="-IwhxtBvp0DvWlYwRBfR-5" style="edgeStyle=orthogonalEdgeStyle;rounded=0;orthogonalLoop=1;jettySize=auto;html=1;" edge="1" parent="1" source="-IwhxtBvp0DvWlYwRBfR-1" target="-IwhxtBvp0DvWlYwRBfR-3">
          <mxGeometry relative="1" as="geometry" />
        </mxCell>
        <mxCell id="-IwhxtBvp0DvWlYwRBfR-1" value="INICIO" style="strokeWidth=2;html=1;shape=mxgraph.flowchart.start_1;whiteSpace=wrap;" vertex="1" parent="1">
          <mxGeometry x="535" y="20" width="100" height="60" as="geometry" />
        </mxCell>
        <mxCell id="-IwhxtBvp0DvWlYwRBfR-2" value="FIM" style="strokeWidth=2;html=1;shape=mxgraph.flowchart.start_1;whiteSpace=wrap;" vertex="1" parent="1">
          <mxGeometry x="525" y="710" width="100" height="60" as="geometry" />
        </mxCell>
        <mxCell id="-IwhxtBvp0DvWlYwRBfR-6" style="edgeStyle=orthogonalEdgeStyle;rounded=0;orthogonalLoop=1;jettySize=auto;html=1;" edge="1" parent="1" source="-IwhxtBvp0DvWlYwRBfR-3" target="-IwhxtBvp0DvWlYwRBfR-4">
          <mxGeometry relative="1" as="geometry" />
        </mxCell>
        <mxCell id="-IwhxtBvp0DvWlYwRBfR-3" value="CARGO" style="shape=parallelogram;html=1;strokeWidth=2;perimeter=parallelogramPerimeter;whiteSpace=wrap;rounded=1;arcSize=12;size=0.23;" vertex="1" parent="1">
          <mxGeometry x="502.5" y="110" width="165" height="30" as="geometry" />
        </mxCell>
        <mxCell id="-IwhxtBvp0DvWlYwRBfR-17" style="edgeStyle=orthogonalEdgeStyle;rounded=0;orthogonalLoop=1;jettySize=auto;html=1;" edge="1" parent="1" source="-IwhxtBvp0DvWlYwRBfR-4" target="-IwhxtBvp0DvWlYwRBfR-16">
          <mxGeometry relative="1" as="geometry" />
        </mxCell>
        <mxCell id="-IwhxtBvp0DvWlYwRBfR-4" value="DEPARTAMENTO" style="shape=parallelogram;html=1;strokeWidth=2;perimeter=parallelogramPerimeter;whiteSpace=wrap;rounded=1;arcSize=12;size=0.23;" vertex="1" parent="1">
          <mxGeometry x="497" y="170" width="175" height="30" as="geometry" />
        </mxCell>
        <mxCell id="-IwhxtBvp0DvWlYwRBfR-18" style="edgeStyle=orthogonalEdgeStyle;rounded=0;orthogonalLoop=1;jettySize=auto;html=1;entryX=0.5;entryY=0;entryDx=0;entryDy=0;entryPerimeter=0;" edge="1" parent="1" source="-IwhxtBvp0DvWlYwRBfR-16" target="-IwhxtBvp0DvWlYwRBfR-19">
          <mxGeometry relative="1" as="geometry">
            <mxPoint x="800" y="310" as="targetPoint" />
          </mxGeometry>
        </mxCell>
        <mxCell id="-IwhxtBvp0DvWlYwRBfR-20" value="NÃO" style="edgeLabel;html=1;align=center;verticalAlign=middle;resizable=0;points=[];" vertex="1" connectable="0" parent="-IwhxtBvp0DvWlYwRBfR-18">
          <mxGeometry x="-0.2" relative="1" as="geometry">
            <mxPoint as="offset" />
          </mxGeometry>
        </mxCell>
        <mxCell id="-IwhxtBvp0DvWlYwRBfR-21" style="edgeStyle=orthogonalEdgeStyle;rounded=0;orthogonalLoop=1;jettySize=auto;html=1;entryX=0.5;entryY=0;entryDx=0;entryDy=0;entryPerimeter=0;" edge="1" parent="1" source="-IwhxtBvp0DvWlYwRBfR-16" target="-IwhxtBvp0DvWlYwRBfR-22">
          <mxGeometry relative="1" as="geometry">
            <mxPoint x="585" y="390" as="targetPoint" />
          </mxGeometry>
        </mxCell>
        <mxCell id="-IwhxtBvp0DvWlYwRBfR-44" value="SIM" style="edgeLabel;html=1;align=center;verticalAlign=middle;resizable=0;points=[];" vertex="1" connectable="0" parent="-IwhxtBvp0DvWlYwRBfR-21">
          <mxGeometry x="-0.4" relative="1" as="geometry">
            <mxPoint as="offset" />
          </mxGeometry>
        </mxCell>
        <mxCell id="-IwhxtBvp0DvWlYwRBfR-16" value="CARGO=&quot;GERENTE&quot;" style="strokeWidth=2;html=1;shape=mxgraph.flowchart.decision;whiteSpace=wrap;" vertex="1" parent="1">
          <mxGeometry x="490" y="230" width="190" height="60" as="geometry" />
        </mxCell>
        <mxCell id="-IwhxtBvp0DvWlYwRBfR-19" value="" style="strokeWidth=1;html=1;shape=mxgraph.flowchart.start_2;whiteSpace=wrap;" vertex="1" parent="1">
          <mxGeometry x="750" y="300" width="20" height="20" as="geometry" />
        </mxCell>
        <mxCell id="-IwhxtBvp0DvWlYwRBfR-27" style="edgeStyle=orthogonalEdgeStyle;rounded=0;orthogonalLoop=1;jettySize=auto;html=1;" edge="1" parent="1" source="-IwhxtBvp0DvWlYwRBfR-22" target="-IwhxtBvp0DvWlYwRBfR-25">
          <mxGeometry relative="1" as="geometry" />
        </mxCell>
        <mxCell id="-IwhxtBvp0DvWlYwRBfR-45" value="SIM" style="edgeLabel;html=1;align=center;verticalAlign=middle;resizable=0;points=[];" vertex="1" connectable="0" parent="-IwhxtBvp0DvWlYwRBfR-27">
          <mxGeometry x="0.2504" y="1" relative="1" as="geometry">
            <mxPoint as="offset" />
          </mxGeometry>
        </mxCell>
        <mxCell id="-IwhxtBvp0DvWlYwRBfR-22" value="DEPARTAMENTO=&quot;TIC&quot;" style="strokeWidth=2;html=1;shape=mxgraph.flowchart.decision;whiteSpace=wrap;" vertex="1" parent="1">
          <mxGeometry x="490" y="330" width="190" height="60" as="geometry" />
        </mxCell>
        <mxCell id="-IwhxtBvp0DvWlYwRBfR-23" style="edgeStyle=orthogonalEdgeStyle;rounded=0;orthogonalLoop=1;jettySize=auto;html=1;entryX=0.5;entryY=1;entryDx=0;entryDy=0;entryPerimeter=0;" edge="1" parent="1" source="-IwhxtBvp0DvWlYwRBfR-22" target="-IwhxtBvp0DvWlYwRBfR-19">
          <mxGeometry relative="1" as="geometry" />
        </mxCell>
        <mxCell id="-IwhxtBvp0DvWlYwRBfR-24" value="NÃO" style="edgeLabel;html=1;align=center;verticalAlign=middle;resizable=0;points=[];" vertex="1" connectable="0" parent="-IwhxtBvp0DvWlYwRBfR-23">
          <mxGeometry x="-0.3626" y="3" relative="1" as="geometry">
            <mxPoint y="2" as="offset" />
          </mxGeometry>
        </mxCell>
        <mxCell id="-IwhxtBvp0DvWlYwRBfR-46" style="edgeStyle=orthogonalEdgeStyle;rounded=0;orthogonalLoop=1;jettySize=auto;html=1;" edge="1" parent="1" source="-IwhxtBvp0DvWlYwRBfR-25" target="-IwhxtBvp0DvWlYwRBfR-28">
          <mxGeometry relative="1" as="geometry" />
        </mxCell>
        <mxCell id="-IwhxtBvp0DvWlYwRBfR-25" value="IDADE" style="shape=parallelogram;html=1;strokeWidth=2;perimeter=parallelogramPerimeter;whiteSpace=wrap;rounded=1;arcSize=12;size=0.23;" vertex="1" parent="1">
          <mxGeometry x="497.5" y="420" width="175" height="30" as="geometry" />
        </mxCell>
        <mxCell id="-IwhxtBvp0DvWlYwRBfR-32" style="edgeStyle=orthogonalEdgeStyle;rounded=0;orthogonalLoop=1;jettySize=auto;html=1;exitX=1;exitY=0.5;exitDx=0;exitDy=0;exitPerimeter=0;" edge="1" parent="1" source="-IwhxtBvp0DvWlYwRBfR-28" target="-IwhxtBvp0DvWlYwRBfR-29">
          <mxGeometry relative="1" as="geometry" />
        </mxCell>
        <mxCell id="-IwhxtBvp0DvWlYwRBfR-47" value="&lt;span style=&quot;color: rgba(0, 0, 0, 0); font-family: monospace; font-size: 0px; text-align: start; background-color: rgb(251, 251, 251);&quot;&gt;V&lt;/span&gt;" style="edgeLabel;html=1;align=center;verticalAlign=middle;resizable=0;points=[];" vertex="1" connectable="0" parent="-IwhxtBvp0DvWlYwRBfR-32">
          <mxGeometry x="-0.5179" y="-1" relative="1" as="geometry">
            <mxPoint as="offset" />
          </mxGeometry>
        </mxCell>
        <mxCell id="-IwhxtBvp0DvWlYwRBfR-48" value="V" style="edgeLabel;html=1;align=center;verticalAlign=middle;resizable=0;points=[];" vertex="1" connectable="0" parent="-IwhxtBvp0DvWlYwRBfR-32">
          <mxGeometry x="-0.5179" y="2" relative="1" as="geometry">
            <mxPoint as="offset" />
          </mxGeometry>
        </mxCell>
        <mxCell id="-IwhxtBvp0DvWlYwRBfR-28" value="IDADE &amp;gt; 60" style="strokeWidth=2;html=1;shape=mxgraph.flowchart.decision;whiteSpace=wrap;" vertex="1" parent="1">
          <mxGeometry x="490" y="470" width="190" height="60" as="geometry" />
        </mxCell>
        <mxCell id="-IwhxtBvp0DvWlYwRBfR-29" value="&quot;RECEBE BONUS +&quot;" style="strokeWidth=2;html=1;shape=mxgraph.flowchart.display;whiteSpace=wrap;" vertex="1" parent="1">
          <mxGeometry x="695" y="550" width="130" height="50" as="geometry" />
        </mxCell>
        <mxCell id="-IwhxtBvp0DvWlYwRBfR-30" value="&quot;RECEBE BONUS&quot;" style="strokeWidth=2;html=1;shape=mxgraph.flowchart.display;whiteSpace=wrap;" vertex="1" parent="1">
          <mxGeometry x="350" y="550" width="130" height="50" as="geometry" />
        </mxCell>
        <mxCell id="-IwhxtBvp0DvWlYwRBfR-31" style="edgeStyle=orthogonalEdgeStyle;rounded=0;orthogonalLoop=1;jettySize=auto;html=1;entryX=0.5;entryY=0;entryDx=0;entryDy=0;entryPerimeter=0;exitX=0;exitY=0.5;exitDx=0;exitDy=0;exitPerimeter=0;" edge="1" parent="1" source="-IwhxtBvp0DvWlYwRBfR-28" target="-IwhxtBvp0DvWlYwRBfR-30">
          <mxGeometry relative="1" as="geometry" />
        </mxCell>
        <mxCell id="-IwhxtBvp0DvWlYwRBfR-49" value="F" style="edgeLabel;html=1;align=center;verticalAlign=middle;resizable=0;points=[];" vertex="1" connectable="0" parent="-IwhxtBvp0DvWlYwRBfR-31">
          <mxGeometry x="-0.2033" y="-2" relative="1" as="geometry">
            <mxPoint as="offset" />
          </mxGeometry>
        </mxCell>
        <mxCell id="-IwhxtBvp0DvWlYwRBfR-42" style="edgeStyle=orthogonalEdgeStyle;rounded=0;orthogonalLoop=1;jettySize=auto;html=1;" edge="1" parent="1" source="-IwhxtBvp0DvWlYwRBfR-34" target="-IwhxtBvp0DvWlYwRBfR-40">
          <mxGeometry relative="1" as="geometry" />
        </mxCell>
        <mxCell id="-IwhxtBvp0DvWlYwRBfR-34" value="" style="strokeWidth=1;html=1;shape=mxgraph.flowchart.start_2;whiteSpace=wrap;" vertex="1" parent="1">
          <mxGeometry x="565" y="630" width="20" height="20" as="geometry" />
        </mxCell>
        <mxCell id="-IwhxtBvp0DvWlYwRBfR-35" style="edgeStyle=orthogonalEdgeStyle;rounded=0;orthogonalLoop=1;jettySize=auto;html=1;entryX=0;entryY=0.5;entryDx=0;entryDy=0;entryPerimeter=0;" edge="1" parent="1" source="-IwhxtBvp0DvWlYwRBfR-30" target="-IwhxtBvp0DvWlYwRBfR-34">
          <mxGeometry relative="1" as="geometry">
            <Array as="points">
              <mxPoint x="415" y="640" />
            </Array>
          </mxGeometry>
        </mxCell>
        <mxCell id="-IwhxtBvp0DvWlYwRBfR-36" style="edgeStyle=orthogonalEdgeStyle;rounded=0;orthogonalLoop=1;jettySize=auto;html=1;entryX=1;entryY=0.5;entryDx=0;entryDy=0;entryPerimeter=0;" edge="1" parent="1" source="-IwhxtBvp0DvWlYwRBfR-29" target="-IwhxtBvp0DvWlYwRBfR-34">
          <mxGeometry relative="1" as="geometry">
            <Array as="points">
              <mxPoint x="760" y="640" />
            </Array>
          </mxGeometry>
        </mxCell>
        <mxCell id="-IwhxtBvp0DvWlYwRBfR-43" style="edgeStyle=orthogonalEdgeStyle;rounded=0;orthogonalLoop=1;jettySize=auto;html=1;" edge="1" parent="1" source="-IwhxtBvp0DvWlYwRBfR-40" target="-IwhxtBvp0DvWlYwRBfR-2">
          <mxGeometry relative="1" as="geometry" />
        </mxCell>
        <mxCell id="-IwhxtBvp0DvWlYwRBfR-40" value="" style="strokeWidth=1;html=1;shape=mxgraph.flowchart.start_2;whiteSpace=wrap;" vertex="1" parent="1">
          <mxGeometry x="565" y="670" width="20" height="20" as="geometry" />
        </mxCell>
        <mxCell id="-IwhxtBvp0DvWlYwRBfR-41" style="edgeStyle=orthogonalEdgeStyle;rounded=0;orthogonalLoop=1;jettySize=auto;html=1;entryX=1;entryY=0.5;entryDx=0;entryDy=0;entryPerimeter=0;" edge="1" parent="1" source="-IwhxtBvp0DvWlYwRBfR-19" target="-IwhxtBvp0DvWlYwRBfR-40">
          <mxGeometry relative="1" as="geometry">
            <Array as="points">
              <mxPoint x="850" y="310" />
              <mxPoint x="850" y="680" />
            </Array>
          </mxGeometry>
        </mxCell>
      </root>
    </mxGraphModel>
  </diagram>
</mxfile>
